<svg width="144" height="61" viewBox="0 0 144 61" fill="none" xmlns="http://www.w3.org/2000/svg">
<circle cx="30" cy="30" r="30" fill="white"/>
<path d="M34.809 40.6673C34.426 40.6673 34.043 40.5213 33.75 40.2303L24 30.5203L33.731 20.4573C34.307 19.8613 35.256 19.8463 35.852 20.4213C36.447 20.9973 36.463 21.9463 35.887 22.5423L28.212 30.4793L35.868 38.1033C36.455 38.6873 36.457 39.6383 35.872 40.2253C35.579 40.5203 35.194 40.6673 34.809 40.6673Z" fill="#F6BBB8"/>
<circle cx="113.341" cy="30.341" r="30" fill="white"/>
<path d="M108.842 20.4025C109.225 20.4003 109.608 20.5441 109.903 20.8334L119.708 30.4879L110.034 40.606C109.462 41.2053 108.513 41.2257 107.914 40.6541C107.315 40.0815 107.294 39.1326 107.867 38.5333L115.496 30.5528L107.797 22.9724C107.207 22.3918 107.199 21.4408 107.781 20.8505C108.072 20.5538 108.457 20.4046 108.842 20.4025Z" fill="#F6BBB8"/>
</svg>
