<svg width="60" height="60" viewBox="0 0 60 60" fill="none" xmlns="http://www.w3.org/2000/svg">
<path d="M30 60C46.5685 60 60 46.5685 60 30C60 13.4315 46.5685 0 30 0C13.4315 0 0 13.4315 0 30C0 46.5685 13.4315 60 30 60Z" fill="white"/>
<path d="M25.5013 20.0615C25.8843 20.0593 26.2673 20.2031 26.5623 20.4924L36.3673 30.1469L26.6933 40.265C26.1213 40.8643 25.1723 40.8847 24.5733 40.3131C23.9743 39.7405 23.9533 38.7916 24.5263 38.1923L32.1553 30.2118L24.4563 22.6314C23.8663 22.0508 23.8583 21.0998 24.4403 20.5095C24.7313 20.2128 25.1163 20.0636 25.5013 20.0615Z" fill="#F6BBB8"/>
</svg>
