<svg width="120" height="120" viewBox="0 0 120 120" fill="none" xmlns="http://www.w3.org/2000/svg">
<path d="M120 60C120 93.1371 93.1371 120 60 120C26.8629 120 0 93.1371 0 60C0 26.8629 26.8629 0 60 0C93.1371 0 120 26.8629 120 60Z" fill="black"/>
<path d="M103.696 52.1359C102.985 48.2399 101.019 44.7129 98.115 42.0699C98.118 41.0679 98.0279 40.0679 97.8469 39.0779C96.5009 31.7259 90.3799 26.2329 83.0359 25.5949C79.3079 21.4429 73.5639 19.4329 68.0579 20.4379C66.9999 20.6329 65.9699 20.9299 64.9819 21.3199C61.3159 19.2749 56.979 18.5359 52.86 19.2869C48.335 20.1119 44.3009 22.6349 41.5819 26.2869C40.6129 26.3119 39.6459 26.4149 38.6999 26.5889C30.5749 28.0749 24.372 34.6029 23.218 42.6879C17.751 46.9169 15.051 53.8539 16.302 60.7059C17.686 68.2919 23.789 74.2979 31.327 75.6429C34.691 79.2059 39.5359 80.9889 44.3799 80.4319C48.7429 84.9669 53.266 86.3299 58.742 86.5279C58.929 86.5829 59.1249 86.6189 59.3279 86.6299C59.3769 86.6349 59.557 86.6399 59.847 86.6399C60.05 86.6399 60.3079 86.6349 60.6069 86.6189C61.7569 88.1529 64.1749 91.7179 66.5229 97.3479C67.1479 98.8439 68.0949 101.116 70.5019 101.764C70.9119 101.874 71.3219 101.925 71.7309 101.925C73.8009 101.925 75.8009 100.634 77.3849 99.4319C79.7809 97.6119 80.5809 94.2869 79.8189 89.3289C80.0119 89.3399 80.212 89.3529 80.409 89.3529C82.563 89.3529 84.7509 88.7319 86.7309 87.5129C89.1719 86.0169 90.941 83.8369 91.686 81.4799C97.99 78.6029 101.789 72.0429 101.118 65.1149C103.58 61.3029 104.517 56.6319 103.696 52.1359ZM34.7169 71.4789C34.2839 70.9519 33.6649 70.6139 32.9869 70.5319C27.268 69.8489 22.551 65.4159 21.519 59.7559C20.807 55.8599 21.886 51.9229 24.331 48.9539C25.451 51.5149 27.563 54.4289 31.507 55.6719C32.189 55.8849 32.8109 55.9819 33.3799 55.9819C36.5529 55.9819 38.071 53.0029 39.035 51.1119C40.479 48.2719 41.857 45.5699 46.761 45.2799C46.443 46.3459 46.3689 47.1439 46.3529 47.3249C46.2539 48.7859 47.3549 50.0549 48.8159 50.1529C48.8779 50.1579 48.9389 50.1629 49.0009 50.1629C50.3829 50.1629 51.548 49.0919 51.644 47.6919C51.646 47.6709 51.8699 45.4869 53.5779 44.0549C54.9539 42.8989 57.0209 42.4579 59.7179 42.7469C61.1759 42.8979 62.4799 41.8479 62.6329 40.3919C62.7889 38.9359 61.7369 37.6289 60.2789 37.4749C56.0939 37.0289 52.6929 37.8799 50.1709 39.9919C50.1399 40.0179 50.1119 40.0489 50.0789 40.0739C39.2399 39.0489 36.159 45.0749 34.312 48.7049C33.981 49.3529 33.5019 50.2909 33.1969 50.6429C33.1699 50.6319 33.137 50.6249 33.101 50.6149C29.38 49.4409 28.546 45.1799 28.396 44.1349C28.959 37.9719 33.556 32.9179 39.656 31.8049C40.697 31.6159 41.7689 31.5489 42.841 31.5999C43.8059 31.6509 44.7219 31.1689 45.2309 30.3489C47.1269 27.2839 50.2549 25.1509 53.8139 24.5049C55.9219 24.1209 58.1099 24.2899 60.1429 24.9629C59.0699 26.3729 58.13 28.2339 57.743 30.5899C57.506 32.0299 58.485 33.3939 59.931 33.6299C60.077 33.6549 60.221 33.6709 60.361 33.6709C61.638 33.6709 62.7629 32.7479 62.9759 31.4459C63.5389 28.0159 65.8919 26.7349 65.9959 26.6809L65.958 26.6989H65.9549C65.9729 26.6889 65.9909 26.6859 66.0099 26.6759C66.9489 26.1919 67.9599 25.8479 69.0159 25.6559C72.9989 24.9279 77.167 26.5529 79.641 29.7959C80.137 30.4439 80.9059 30.8289 81.7229 30.8369C86.9559 30.8879 91.4509 34.5819 92.5529 39.6699C89.7339 39.1269 85.809 38.9619 82.186 40.8519C80.43 39.4549 77.422 37.7909 73.387 38.2499C71.934 38.4169 70.887 39.7309 71.055 41.1849C71.221 42.6409 72.5339 43.6849 73.9899 43.5199C77.5379 43.1149 79.6899 45.7289 79.7639 45.8189C80.1989 46.3779 80.83 46.7389 81.531 46.8289C81.641 46.8419 81.7519 46.8469 81.8619 46.8469C82.4489 46.8469 83.022 46.6519 83.492 46.2879C87.289 43.3299 92.749 45.0829 94.061 45.5699C96.376 47.4769 97.947 50.1279 98.488 53.0859C99.096 56.4239 98.332 59.8839 96.395 62.6419C95.678 63.1799 92.956 64.7589 88.409 62.1559C87.139 61.4229 85.5199 61.8629 84.7899 63.1329C84.0629 64.4029 84.503 66.0259 85.77 66.7499C88.584 68.3669 91.067 68.9179 93.143 68.9179C94.09 68.9179 94.9479 68.7999 95.7209 68.6149C95.1739 71.6849 93.3309 74.3979 90.6329 76.0439C84.1669 79.8729 75.1189 75.0719 75.0319 75.0249C73.8729 74.3919 72.4259 74.7109 71.6359 75.7709C68.5599 79.9039 63.864 80.9719 61.347 81.2479C61.319 81.2479 61.2919 81.2419 61.2649 81.2479C56.6449 81.3399 53.335 80.8859 50.213 78.5429C51.985 77.4279 53.699 75.6859 54.659 73.1089C54.932 73.1269 55.2069 73.1349 55.4879 73.1349C57.2579 73.1349 59.142 72.7809 61.088 71.9059C62.424 71.3049 63.0219 69.7379 62.4199 68.4039C61.8199 67.0719 60.252 66.4679 58.917 67.0719C53.007 69.7239 48.4359 64.6759 48.2229 64.4329C47.2649 63.3329 45.5969 63.2149 44.4909 64.1689C43.3839 65.1249 43.261 66.7989 44.218 67.9069C45.28 69.1369 47.1179 70.6719 49.4679 71.7609C48.1759 74.4319 45.4339 74.9009 45.0539 74.9539C44.9849 74.9619 44.915 74.9749 44.847 74.9899C44.834 74.9919 44.825 74.9919 44.812 74.9949C44.697 75.0189 44.5789 75.0439 44.4629 75.0659C40.8239 75.7289 37.0879 74.3579 34.7169 71.4789ZM74.1819 95.2099C73.0159 96.0909 72.3339 96.4249 71.9949 96.5479C71.7849 96.1879 71.5289 95.5719 71.4189 95.3049C69.6189 90.9949 67.7729 87.7659 66.3559 85.5949C68.3309 84.9669 70.4889 83.9719 72.5079 82.3929C74.6819 88.3629 75.5169 94.1929 74.1819 95.2099ZM78.5099 83.7269C78.3069 83.0469 78.0999 82.4069 77.8969 81.8039C79.7379 82.3309 81.917 82.7599 84.229 82.8169C84.141 82.8769 84.057 82.9419 83.965 82.9999C82.208 84.0739 80.2279 84.3329 78.5099 83.7269Z" fill="white"/>
<path d="M63.162 62.2589C64.582 62.9579 66.437 63.4549 68.368 63.4549C70.769 63.4549 73.287 62.6839 75.23 60.5799C76.716 61.2889 78.737 61.8899 80.91 61.4879C82.615 61.1699 85.035 60.0879 86.87 56.7389C87.572 55.4549 87.105 53.8449 85.822 53.1399C84.54 52.4349 82.927 52.9039 82.222 54.1859C81.55 55.4089 80.788 56.1079 79.952 56.2699C78.513 56.5489 76.707 55.3929 76.2 54.9799C75.582 54.4569 74.757 54.2469 73.962 54.4109C73.173 54.5669 72.496 55.0819 72.13 55.8059C70.24 59.5169 66.276 57.8679 65.488 57.4939C64.176 56.8579 62.596 57.3989 61.95 58.7089C61.308 60.0209 61.848 61.6089 63.162 62.2589Z" fill="white"/>
</svg>
