<svg xmlns="http://www.w3.org/2000/svg" xmlns:xlink="http://www.w3.org/1999/xlink" version="1.1" x="0px" y="0px" viewBox="0 0 100 125" enable-background="new 0 0 100 100" xml:space="preserve"><g><path d="M91.886,53.12l-3.593-16.168c-0.006-0.024-0.019-0.046-0.025-0.071c-0.025-0.1-0.062-0.197-0.104-0.294   c-0.02-0.046-0.038-0.093-0.062-0.138c-0.01-0.019-0.016-0.04-0.026-0.059c-0.053-0.092-0.117-0.172-0.181-0.252   c-0.015-0.018-0.022-0.038-0.037-0.055l-0.017-0.02c-0.001-0.001-0.002-0.002-0.003-0.003L75.859,22.126   c-0.181-0.211-0.404-0.381-0.654-0.501l-15.915-7.6c-0.022-0.01-0.046-0.015-0.068-0.024c-0.067-0.029-0.137-0.053-0.206-0.074   c-0.056-0.017-0.11-0.034-0.167-0.046c-0.072-0.016-0.146-0.024-0.219-0.032c-0.039-0.004-0.076-0.015-0.115-0.017l-14.001-0.611   c-0.2-0.009-0.393,0.012-0.583,0.06L24.77,18.176c-0.026,0.007-0.048,0.022-0.074,0.03c-0.129,0.038-0.251,0.087-0.366,0.148   c-0.04,0.021-0.077,0.043-0.115,0.066c-0.123,0.076-0.236,0.163-0.338,0.262c-0.012,0.011-0.027,0.018-0.039,0.03L8.639,34.189   c-0.025,0.025-0.042,0.056-0.064,0.082c-0.063,0.071-0.125,0.145-0.178,0.226c-0.031,0.047-0.055,0.097-0.082,0.146   c-0.028,0.052-0.062,0.099-0.085,0.153c-0.01,0.024-0.014,0.049-0.023,0.073c-0.021,0.055-0.037,0.11-0.053,0.167   c-0.023,0.081-0.044,0.161-0.057,0.242c-0.008,0.054-0.013,0.108-0.018,0.163c-0.006,0.087-0.008,0.172-0.003,0.259   c0.001,0.029-0.004,0.058-0.001,0.087l1.59,16.166c0.074,0.755,0.57,1.403,1.279,1.673l13.533,5.149l8.071,12.97   c0.013,0.021,0.033,0.036,0.046,0.057c0.02,0.03,0.034,0.063,0.056,0.092c0.038,0.05,0.085,0.086,0.126,0.132   c0.049,0.054,0.096,0.108,0.15,0.156c0.073,0.064,0.151,0.117,0.231,0.17c0.054,0.035,0.105,0.073,0.163,0.104   c0.093,0.049,0.191,0.083,0.291,0.116c0.053,0.019,0.103,0.042,0.158,0.056c0.153,0.038,0.309,0.06,0.466,0.061   c0.004,0,0.007,0.001,0.011,0.001h14.463l12.393,13.449c0.387,0.419,0.923,0.645,1.471,0.645c0.254,0,0.511-0.048,0.755-0.148   c0.773-0.315,1.27-1.077,1.244-1.911l-0.331-11.044l2.103-5.238l14.087,1.746c0.782,0.102,1.523-0.261,1.937-0.916l9.257-14.647   C91.906,54.176,92.001,53.636,91.886,53.12z M73.101,25.053l8.273,9.624l-19.27-3.542l-1.44-12.021L73.101,25.053z M60.349,34.88   l19.954,3.668L56.026,52.492L60.349,34.88z M58.199,32.163l-20.363,7.86L56.79,20.403L58.199,32.163z M51.646,53.563l-15.737-8.509   l19.69-7.6L51.646,53.563z M44.635,17.23l9.269,0.405L31.854,40.457L27.64,21.571L44.635,17.23z M24.114,24.14l3.791,16.985   l-14.37-6.213L24.114,24.14z M13.525,50.327l-1.137-11.553l15.762,6.816l-3.478,8.979L13.525,50.327z M28.045,56.936l3.711-9.579   l17.525,9.477L34.788,67.772L28.045,56.936z M51.057,69.332c-0.379-0.411-0.912-0.645-1.471-0.645h-9.37l11.044-8.337l0.869,2.174   l-0.006,0.002l4.919,13.302L51.057,69.332z M79.664,66.061l-14.356-1.779c-0.901-0.119-1.764,0.397-2.103,1.239l-2.832,7.055   c-0.054,0.135-0.091,0.274-0.114,0.416L56.201,62.02l0.031-0.013l-1.338-3.345l28.457,1.563L79.664,66.061z M85.799,56.354   l-25.98-1.427l25.16-14.452l2.824,12.708L85.799,56.354z"/></g><text x="0" y="115" fill="#000000" font-size="5px" font-weight="bold" font-family="'Helvetica Neue', Helvetica, Arial-Unicode, Arial, Sans-serif">Created by achmad mulyana</text><text x="0" y="120" fill="#000000" font-size="5px" font-weight="bold" font-family="'Helvetica Neue', Helvetica, Arial-Unicode, Arial, Sans-serif">from the Noun Project</text></svg>