<svg width="65" height="65" viewBox="0 0 65 65" fill="none" xmlns="http://www.w3.org/2000/svg">
<circle cx="32.5" cy="32.5" r="32.5" fill="white"/>
<path d="M41.2457 15.0258C38.2601 14.8279 35.3112 15.7754 32.9996 17.6754C30.6018 15.7287 27.5431 14.7866 24.4656 15.0469C21.3881 15.3072 18.5311 16.7496 16.4943 19.0713C14.5051 21.4181 13.4802 24.4321 13.6266 27.5051C13.7729 30.5781 15.0795 33.4811 17.2828 35.6282L30.5438 48.8764C31.2021 49.6996 32.1592 50.2293 33.2064 50.3498C33.4689 50.3463 33.7281 50.2895 33.968 50.1829C34.208 50.0762 34.4237 49.922 34.6023 49.7294L48.7035 35.6282C50.9113 33.4843 52.2223 30.5818 52.3711 27.5079C52.5198 24.434 51.4953 21.4184 49.5048 19.0713C48.4686 17.879 47.2037 16.9067 45.7851 16.2118C44.3665 15.517 42.8229 15.1136 41.2457 15.0258Z" fill="#F9827D"/>
</svg>
