<svg width="361" height="342" viewBox="0 0 361 342" fill="none" xmlns="http://www.w3.org/2000/svg">
<ellipse cx="180.5" cy="171" rx="180.5" ry="171" fill="black"/>
<path d="M260.684 211.501C260.684 223.757 257.731 235.543 252.271 246.598C284.047 227.46 304.209 200.141 305.04 169.742L305.655 169.12V96.2456H200.978V190.567H257.746C259.669 197.351 260.684 204.343 260.684 211.501Z" fill="white"/>
<path d="M111.199 189.322C113.229 196.272 114.291 203.444 114.291 210.78C114.291 223.037 111.322 234.836 105.862 245.891C138.052 226.505 158.324 198.745 158.662 167.875H158.677V167.502C158.677 167.35 158.677 167.212 158.677 167.06C158.677 166.908 158.677 166.756 158.677 166.604V95H54V189.321H111.199V189.322Z" fill="white"/>
</svg>
